<?xml version="1.0" standalone="no"?><!DOCTYPE svg PUBLIC "-//W3C//DTD SVG 1.1//EN" "http://www.w3.org/Graphics/SVG/1.1/DTD/svg11.dtd"><svg width="1280" height="800" version="1.1" xmlns="http://www.w3.org/2000/svg" xmlns:xlink="http://www.w3.org/1999/xlink"><defs xmlns="http://www.w3.org/1999/xhtml"><style type="text/css"><![CDATA[
.axis--x path {  }
.line { fill: none; stroke: steelblue; stroke-width: 1.5px; }]]></style></defs><g transform="translate(160,20)"><g class="axis axis--x" transform="translate(0,750)" fill="none" font-size="10" font-family="sans-serif" text-anchor="middle"><path class="domain" stroke="#000" d="M0.5,6V0.5H1040.5V6"/><g class="tick" opacity="1" transform="translate(0,0)"><line stroke="#000" y2="6" x1="0.5" x2="0.5"/><text fill="#000" y="9" x="0.5" dy="0.71em">1</text></g><g class="tick" opacity="1" transform="translate(156.5355977452702,0)"><line stroke="#000" y2="6" x1="0.5" x2="0.5"/><text fill="#000" y="9" x="0.5" dy="0.71em">2</text></g><g class="tick" opacity="1" transform="translate(363.46440225472975,0)"><line stroke="#000" y2="6" x1="0.5" x2="0.5"/><text fill="#000" y="9" x="0.5" dy="0.71em">5</text></g><g class="tick" opacity="1" transform="translate(520,0)"><line stroke="#000" y2="6" x1="0.5" x2="0.5"/><text fill="#000" y="9" x="0.5" dy="0.71em">10</text></g><g class="tick" opacity="1" transform="translate(676.5355977452701,0)"><line stroke="#000" y2="6" x1="0.5" x2="0.5"/><text fill="#000" y="9" x="0.5" dy="0.71em">20</text></g><g class="tick" opacity="1" transform="translate(768.1030524542244,0)"><line stroke="#000" y2="6" x1="0.5" x2="0.5"/><text fill="#000" y="9" x="0.5" dy="0.71em">30</text></g><g class="tick" opacity="1" transform="translate(833.0711954905404,0)"><line stroke="#000" y2="6" x1="0.5" x2="0.5"/><text fill="#000" y="9" x="0.5" dy="0.71em">40</text></g><g class="tick" opacity="1" transform="translate(883.4644022547296,0)"><line stroke="#000" y2="6" x1="0.5" x2="0.5"/><text fill="#000" y="9" x="0.5" dy="0.71em">50</text></g><g class="tick" opacity="1" transform="translate(924.6386501994946,0)"><line stroke="#000" y2="6" x1="0.5" x2="0.5"/><text fill="#000" y="9" x="0.5" dy="0.71em">60</text></g><g class="tick" opacity="1" transform="translate(959.4509808074135,0)"><line stroke="#000" y2="6" x1="0.5" x2="0.5"/><text fill="#000" y="9" x="0.5" dy="0.71em">70</text></g><g class="tick" opacity="1" transform="translate(989.6067932358105,0)"><line stroke="#000" y2="6" x1="0.5" x2="0.5"/><text fill="#000" y="9" x="0.5" dy="0.71em">80</text></g><g class="tick" opacity="1" transform="translate(1016.2061049084489,0)"><line stroke="#000" y2="6" x1="0.5" x2="0.5"/><text fill="#000" y="9" x="0.5" dy="0.71em">90</text></g><g class="tick" opacity="1" transform="translate(1040,0)"><line stroke="#000" y2="6" x1="0.5" x2="0.5"/><text fill="#000" y="9" x="0.5" dy="0.71em">100</text></g><text x="25" dy="2em" fill="#000" style="font: 12px sans-serif;">Threads</text></g><g class="axis axis--y" style="font: 12px sans-serif;" fill="none" font-size="10" font-family="sans-serif" text-anchor="end"><path class="domain" stroke="#000" d="M-6,750.5H0.5V0.5H-6"/><g class="tick" opacity="1" transform="translate(0,750)"><line stroke="#000" x2="-6" y1="0.5" y2="0.5"/><text fill="#000" x="-9" y="0.5" dy="0.32em">0</text></g><g class="tick" opacity="1" transform="translate(0,660.7218131408406)"><line stroke="#000" x2="-6" y1="0.5" y2="0.5"/><text fill="#000" x="-9" y="0.5" dy="0.32em">10</text></g><g class="tick" opacity="1" transform="translate(0,571.4436262816812)"><line stroke="#000" x2="-6" y1="0.5" y2="0.5"/><text fill="#000" x="-9" y="0.5" dy="0.32em">20</text></g><g class="tick" opacity="1" transform="translate(0,482.16543942252184)"><line stroke="#000" x2="-6" y1="0.5" y2="0.5"/><text fill="#000" x="-9" y="0.5" dy="0.32em">30</text></g><g class="tick" opacity="1" transform="translate(0,392.88725256336244)"><line stroke="#000" x2="-6" y1="0.5" y2="0.5"/><text fill="#000" x="-9" y="0.5" dy="0.32em">40</text></g><g class="tick" opacity="1" transform="translate(0,303.60906570420303)"><line stroke="#000" x2="-6" y1="0.5" y2="0.5"/><text fill="#000" x="-9" y="0.5" dy="0.32em">50</text></g><g class="tick" opacity="1" transform="translate(0,214.33087884504369)"><line stroke="#000" x2="-6" y1="0.5" y2="0.5"/><text fill="#000" x="-9" y="0.5" dy="0.32em">60</text></g><g class="tick" opacity="1" transform="translate(0,125.05269198588428)"><line stroke="#000" x2="-6" y1="0.5" y2="0.5"/><text fill="#000" x="-9" y="0.5" dy="0.32em">70</text></g><g class="tick" opacity="1" transform="translate(0,35.774505126724875)"><line stroke="#000" x2="-6" y1="0.5" y2="0.5"/><text fill="#000" x="-9" y="0.5" dy="0.32em">80</text></g><text transform="rotate(-90)" y="6" dy="0.71em" fill="#000" style="font: 12px sans-serif;">Time, ms</text></g><g class="algo"><path class="line" d="M0,744.2951310019547L86.66666666666667,723.4712287186873C173.33333333333334,702.6473264354196,346.6666666666667,660.9995218688847,520,548.4045702913259C693.3333333333334,435.8096187137669,866.6666666666666,252.2675201251841,953.3333333333334,160.4964708308927L1040,68.72542153660129" style="stroke: rgb(31, 119, 180);"/><text transform="translate(1040,68.72542153660129)" x="3" dy="0.35em" style="font: 12px sans-serif;">coarse0</text></g><g class="algo"><path class="line" d="M0,743.4978357253365L86.66666666666667,729.0804057849294C173.33333333333334,714.6629758445224,346.6666666666667,685.8281159637085,520,561.9118100094856C693.3333333333334,437.99550405526287,866.6666666666666,218.99775202763144,953.3333333333334,109.49887601381572L1040,0" style="stroke: rgb(255, 127, 14);"/><text transform="translate(1040,0)" x="3" dy="0.35em" style="font: 12px sans-serif;">fine0</text></g><g class="algo"><path class="line" d="M0,744.2286491073281L86.66666666666667,733.5334958020159C173.33333333333334,722.8383424967036,346.6666666666667,701.4480358860791,520,589.2087507493297C693.3333333333334,476.96946561258034,866.6666666666666,273.88120194970617,953.3333333333334,172.33707011826905L1040,70.79293828683194" style="stroke: rgb(44, 160, 44);"/><text transform="translate(1040,70.79293828683194)" x="3" dy="0.35em" style="font: 12px sans-serif;">fine1</text></g><g class="algo"><path class="line" d="M0,743.9150826883139L86.66666666666667,729.4236622601715C173.33333333333334,714.932241832029,346.6666666666667,685.9494009757444,520,571.8109926288786C693.3333333333334,457.67258428201285,866.6666666666666,258.37860844456617,953.3333333333334,158.73162052584283L1040,59.08463260711949" style="stroke: rgb(214, 39, 40);"/><text transform="translate(1040,59.08463260711949)" x="3" dy="0.35em" style="font: 12px sans-serif;">lockfree0</text></g><g class="algo"><path class="line" d="M0,744.2281866463202L86.66666666666667,735.5511640766135C173.33333333333334,726.8741415069071,346.6666666666667,709.5200963674939,520,607.9939454604842C693.3333333333334,506.46779455347445,866.6666666666666,320.7695378788681,953.3333333333334,227.92040954156496L1040,135.07128120426182" style="stroke: rgb(148, 103, 189);"/><text transform="translate(1040,135.07128120426182)" x="3" dy="0.35em" style="font: 12px sans-serif;">standard</text></g></g></svg>