<?xml version="1.0" standalone="no"?><!DOCTYPE svg PUBLIC "-//W3C//DTD SVG 1.1//EN" "http://www.w3.org/Graphics/SVG/1.1/DTD/svg11.dtd"><svg width="1280" height="800" version="1.1" xmlns="http://www.w3.org/2000/svg" xmlns:xlink="http://www.w3.org/1999/xlink"><defs xmlns="http://www.w3.org/1999/xhtml"><style type="text/css"><![CDATA[
.axis--x path {  }
.line { fill: none; stroke: steelblue; stroke-width: 1.5px; }]]></style></defs><g transform="translate(160,20)"><g class="axis axis--x" transform="translate(0,750)" fill="none" font-size="10" font-family="sans-serif" text-anchor="middle"><path class="domain" stroke="#000" d="M0.5,6V0.5H1040.5V6"/><g class="tick" opacity="1" transform="translate(0,0)"><line stroke="#000" y2="6" x1="0.5" x2="0.5"/><text fill="#000" y="9" x="0.5" dy="0.71em">1</text></g><g class="tick" opacity="1" transform="translate(156.5355977452702,0)"><line stroke="#000" y2="6" x1="0.5" x2="0.5"/><text fill="#000" y="9" x="0.5" dy="0.71em">2</text></g><g class="tick" opacity="1" transform="translate(363.46440225472975,0)"><line stroke="#000" y2="6" x1="0.5" x2="0.5"/><text fill="#000" y="9" x="0.5" dy="0.71em">5</text></g><g class="tick" opacity="1" transform="translate(520,0)"><line stroke="#000" y2="6" x1="0.5" x2="0.5"/><text fill="#000" y="9" x="0.5" dy="0.71em">10</text></g><g class="tick" opacity="1" transform="translate(676.5355977452701,0)"><line stroke="#000" y2="6" x1="0.5" x2="0.5"/><text fill="#000" y="9" x="0.5" dy="0.71em">20</text></g><g class="tick" opacity="1" transform="translate(768.1030524542244,0)"><line stroke="#000" y2="6" x1="0.5" x2="0.5"/><text fill="#000" y="9" x="0.5" dy="0.71em">30</text></g><g class="tick" opacity="1" transform="translate(833.0711954905404,0)"><line stroke="#000" y2="6" x1="0.5" x2="0.5"/><text fill="#000" y="9" x="0.5" dy="0.71em">40</text></g><g class="tick" opacity="1" transform="translate(883.4644022547296,0)"><line stroke="#000" y2="6" x1="0.5" x2="0.5"/><text fill="#000" y="9" x="0.5" dy="0.71em">50</text></g><g class="tick" opacity="1" transform="translate(924.6386501994946,0)"><line stroke="#000" y2="6" x1="0.5" x2="0.5"/><text fill="#000" y="9" x="0.5" dy="0.71em">60</text></g><g class="tick" opacity="1" transform="translate(959.4509808074135,0)"><line stroke="#000" y2="6" x1="0.5" x2="0.5"/><text fill="#000" y="9" x="0.5" dy="0.71em">70</text></g><g class="tick" opacity="1" transform="translate(989.6067932358105,0)"><line stroke="#000" y2="6" x1="0.5" x2="0.5"/><text fill="#000" y="9" x="0.5" dy="0.71em">80</text></g><g class="tick" opacity="1" transform="translate(1016.2061049084489,0)"><line stroke="#000" y2="6" x1="0.5" x2="0.5"/><text fill="#000" y="9" x="0.5" dy="0.71em">90</text></g><g class="tick" opacity="1" transform="translate(1040,0)"><line stroke="#000" y2="6" x1="0.5" x2="0.5"/><text fill="#000" y="9" x="0.5" dy="0.71em">100</text></g><text x="25" dy="2em" fill="#000" style="font: 12px sans-serif;">Threads</text></g><g class="axis axis--y" style="font: 12px sans-serif;" fill="none" font-size="10" font-family="sans-serif" text-anchor="end"><path class="domain" stroke="#000" d="M-6,750.5H0.5V0.5H-6"/><g class="tick" opacity="1" transform="translate(0,750)"><line stroke="#000" x2="-6" y1="0.5" y2="0.5"/><text fill="#000" x="-9" y="0.5" dy="0.32em">0</text></g><g class="tick" opacity="1" transform="translate(0,661.348090509855)"><line stroke="#000" x2="-6" y1="0.5" y2="0.5"/><text fill="#000" x="-9" y="0.5" dy="0.32em">10</text></g><g class="tick" opacity="1" transform="translate(0,572.6961810197098)"><line stroke="#000" x2="-6" y1="0.5" y2="0.5"/><text fill="#000" x="-9" y="0.5" dy="0.32em">20</text></g><g class="tick" opacity="1" transform="translate(0,484.04427152956475)"><line stroke="#000" x2="-6" y1="0.5" y2="0.5"/><text fill="#000" x="-9" y="0.5" dy="0.32em">30</text></g><g class="tick" opacity="1" transform="translate(0,395.39236203941965)"><line stroke="#000" x2="-6" y1="0.5" y2="0.5"/><text fill="#000" x="-9" y="0.5" dy="0.32em">40</text></g><g class="tick" opacity="1" transform="translate(0,306.7404525492746)"><line stroke="#000" x2="-6" y1="0.5" y2="0.5"/><text fill="#000" x="-9" y="0.5" dy="0.32em">50</text></g><g class="tick" opacity="1" transform="translate(0,218.0885430591295)"><line stroke="#000" x2="-6" y1="0.5" y2="0.5"/><text fill="#000" x="-9" y="0.5" dy="0.32em">60</text></g><g class="tick" opacity="1" transform="translate(0,129.43663356898446)"><line stroke="#000" x2="-6" y1="0.5" y2="0.5"/><text fill="#000" x="-9" y="0.5" dy="0.32em">70</text></g><g class="tick" opacity="1" transform="translate(0,40.784724078839304)"><line stroke="#000" x2="-6" y1="0.5" y2="0.5"/><text fill="#000" x="-9" y="0.5" dy="0.32em">80</text></g><text transform="rotate(-90)" y="6" dy="0.71em" fill="#000" style="font: 12px sans-serif;">Time, ms</text></g><g class="algo"><path class="line" d="M0,744.8244040068649L86.66666666666667,732.7791623866411C173.33333333333334,720.7339207664173,346.6666666666667,696.64343752597,520,572.5060368581591C693.3333333333334,448.36863619034824,866.6666666666666,224.18431809517412,953.3333333333334,112.09215904758706L1040,0" style="stroke: rgb(31, 119, 180);"/><text transform="translate(1040,0)" x="3" dy="0.35em" style="font: 12px sans-serif;">coarse0</text></g><g class="algo"><path class="line" d="M0,744.8792103903498L86.66666666666667,733.6641020000217C173.33333333333334,722.4489936096937,346.6666666666667,700.0187768290376,520,585.8844914957085C693.3333333333334,471.7502061623795,866.6666666666666,265.9118522763775,953.3333333333334,162.99267533337647L1040,60.07349839037545" style="stroke: rgb(255, 127, 14);"/><text transform="translate(1040,60.07349839037545)" x="3" dy="0.35em" style="font: 12px sans-serif;">fine0</text></g><g class="algo"><path class="line" d="M0,744.8618594386245L86.66666666666667,735.566723867952C173.33333333333334,726.2715882972794,346.6666666666667,707.6813171559343,520,591.1215315362986C693.3333333333334,474.56174591666286,866.6666666666666,260.0324458187365,953.3333333333334,152.76779576977333L1040,45.50314572081015" style="stroke: rgb(44, 160, 44);"/><text transform="translate(1040,45.50314572081015)" x="3" dy="0.35em" style="font: 12px sans-serif;">fine1</text></g><g class="algo"><path class="line" d="M0,739.4077085076422L86.66666666666667,731.4371855370495C173.33333333333334,723.4666625664568,346.6666666666667,707.5256166252713,520,590.6532963818935C693.3333333333334,473.7809761385158,866.6666666666666,255.9773815929458,953.3333333333334,147.07558432016077L1040,38.173787047375754" style="stroke: rgb(214, 39, 40);"/><text transform="translate(1040,38.173787047375754)" x="3" dy="0.35em" style="font: 12px sans-serif;">lockfree0</text></g><g class="algo"><path class="line" d="M0,742.2550642243723L86.66666666666667,734.4928383713303C173.33333333333334,726.7306125182885,346.6666666666667,711.2061608122045,520,611.4407412705771C693.3333333333334,511.6753217289497,866.6666666666666,327.6689343517788,953.3333333333334,235.6657406631933L1040,143.66254697460784" style="stroke: rgb(148, 103, 189);"/><text transform="translate(1040,143.66254697460784)" x="3" dy="0.35em" style="font: 12px sans-serif;">standard</text></g></g></svg>