<?xml version="1.0" standalone="no"?><!DOCTYPE svg PUBLIC "-//W3C//DTD SVG 1.1//EN" "http://www.w3.org/Graphics/SVG/1.1/DTD/svg11.dtd"><svg width="1280" height="800" version="1.1" xmlns="http://www.w3.org/2000/svg" xmlns:xlink="http://www.w3.org/1999/xlink"><defs xmlns="http://www.w3.org/1999/xhtml"><style type="text/css"><![CDATA[
.axis--x path {  }
.line { fill: none; stroke: steelblue; stroke-width: 1.5px; }]]></style></defs><g transform="translate(160,20)"><g class="axis axis--x" transform="translate(0,750)" fill="none" font-size="10" font-family="sans-serif" text-anchor="middle"><path class="domain" stroke="#000" d="M0.5,6V0.5H1040.5V6"/><g class="tick" opacity="1" transform="translate(0,0)"><line stroke="#000" y2="6" x1="0.5" x2="0.5"/><text fill="#000" y="9" x="0.5" dy="0.71em">1</text></g><g class="tick" opacity="1" transform="translate(156.5355977452702,0)"><line stroke="#000" y2="6" x1="0.5" x2="0.5"/><text fill="#000" y="9" x="0.5" dy="0.71em">2</text></g><g class="tick" opacity="1" transform="translate(363.46440225472975,0)"><line stroke="#000" y2="6" x1="0.5" x2="0.5"/><text fill="#000" y="9" x="0.5" dy="0.71em">5</text></g><g class="tick" opacity="1" transform="translate(520,0)"><line stroke="#000" y2="6" x1="0.5" x2="0.5"/><text fill="#000" y="9" x="0.5" dy="0.71em">10</text></g><g class="tick" opacity="1" transform="translate(676.5355977452701,0)"><line stroke="#000" y2="6" x1="0.5" x2="0.5"/><text fill="#000" y="9" x="0.5" dy="0.71em">20</text></g><g class="tick" opacity="1" transform="translate(768.1030524542244,0)"><line stroke="#000" y2="6" x1="0.5" x2="0.5"/><text fill="#000" y="9" x="0.5" dy="0.71em">30</text></g><g class="tick" opacity="1" transform="translate(833.0711954905404,0)"><line stroke="#000" y2="6" x1="0.5" x2="0.5"/><text fill="#000" y="9" x="0.5" dy="0.71em">40</text></g><g class="tick" opacity="1" transform="translate(883.4644022547296,0)"><line stroke="#000" y2="6" x1="0.5" x2="0.5"/><text fill="#000" y="9" x="0.5" dy="0.71em">50</text></g><g class="tick" opacity="1" transform="translate(924.6386501994946,0)"><line stroke="#000" y2="6" x1="0.5" x2="0.5"/><text fill="#000" y="9" x="0.5" dy="0.71em">60</text></g><g class="tick" opacity="1" transform="translate(959.4509808074135,0)"><line stroke="#000" y2="6" x1="0.5" x2="0.5"/><text fill="#000" y="9" x="0.5" dy="0.71em">70</text></g><g class="tick" opacity="1" transform="translate(989.6067932358105,0)"><line stroke="#000" y2="6" x1="0.5" x2="0.5"/><text fill="#000" y="9" x="0.5" dy="0.71em">80</text></g><g class="tick" opacity="1" transform="translate(1016.2061049084489,0)"><line stroke="#000" y2="6" x1="0.5" x2="0.5"/><text fill="#000" y="9" x="0.5" dy="0.71em">90</text></g><g class="tick" opacity="1" transform="translate(1040,0)"><line stroke="#000" y2="6" x1="0.5" x2="0.5"/><text fill="#000" y="9" x="0.5" dy="0.71em">100</text></g><text x="25" dy="2em" fill="#000" style="font: 12px sans-serif;">Threads</text></g><g class="axis axis--y" style="font: 12px sans-serif;" fill="none" font-size="10" font-family="sans-serif" text-anchor="end"><path class="domain" stroke="#000" d="M-6,750.5H0.5V0.5H-6"/><g class="tick" opacity="1" transform="translate(0,750)"><line stroke="#000" x2="-6" y1="0.5" y2="0.5"/><text fill="#000" x="-9" y="0.5" dy="0.32em">0</text></g><g class="tick" opacity="1" transform="translate(0,691.853669496036)"><line stroke="#000" x2="-6" y1="0.5" y2="0.5"/><text fill="#000" x="-9" y="0.5" dy="0.32em">50</text></g><g class="tick" opacity="1" transform="translate(0,633.707338992072)"><line stroke="#000" x2="-6" y1="0.5" y2="0.5"/><text fill="#000" x="-9" y="0.5" dy="0.32em">100</text></g><g class="tick" opacity="1" transform="translate(0,575.561008488108)"><line stroke="#000" x2="-6" y1="0.5" y2="0.5"/><text fill="#000" x="-9" y="0.5" dy="0.32em">150</text></g><g class="tick" opacity="1" transform="translate(0,517.414677984144)"><line stroke="#000" x2="-6" y1="0.5" y2="0.5"/><text fill="#000" x="-9" y="0.5" dy="0.32em">200</text></g><g class="tick" opacity="1" transform="translate(0,459.26834748018)"><line stroke="#000" x2="-6" y1="0.5" y2="0.5"/><text fill="#000" x="-9" y="0.5" dy="0.32em">250</text></g><g class="tick" opacity="1" transform="translate(0,401.122016976216)"><line stroke="#000" x2="-6" y1="0.5" y2="0.5"/><text fill="#000" x="-9" y="0.5" dy="0.32em">300</text></g><g class="tick" opacity="1" transform="translate(0,342.975686472252)"><line stroke="#000" x2="-6" y1="0.5" y2="0.5"/><text fill="#000" x="-9" y="0.5" dy="0.32em">350</text></g><g class="tick" opacity="1" transform="translate(0,284.829355968288)"><line stroke="#000" x2="-6" y1="0.5" y2="0.5"/><text fill="#000" x="-9" y="0.5" dy="0.32em">400</text></g><g class="tick" opacity="1" transform="translate(0,226.68302546432403)"><line stroke="#000" x2="-6" y1="0.5" y2="0.5"/><text fill="#000" x="-9" y="0.5" dy="0.32em">450</text></g><g class="tick" opacity="1" transform="translate(0,168.53669496036002)"><line stroke="#000" x2="-6" y1="0.5" y2="0.5"/><text fill="#000" x="-9" y="0.5" dy="0.32em">500</text></g><g class="tick" opacity="1" transform="translate(0,110.39036445639601)"><line stroke="#000" x2="-6" y1="0.5" y2="0.5"/><text fill="#000" x="-9" y="0.5" dy="0.32em">550</text></g><g class="tick" opacity="1" transform="translate(0,52.244033952432005)"><line stroke="#000" x2="-6" y1="0.5" y2="0.5"/><text fill="#000" x="-9" y="0.5" dy="0.32em">600</text></g><text transform="rotate(-90)" y="6" dy="0.71em" fill="#000" style="font: 12px sans-serif;">Time, ms</text></g><g class="algo"><path class="line" d="M0,745.1933884790258L86.66666666666667,731.9340275650839C173.33333333333334,718.674666651142,346.6666666666667,692.155944823258,520,568.5457674470273C693.3333333333334,444.9355900707963,866.6666666666666,224.2339571462184,953.3333333333334,113.88314068392943L1040,3.532324221640465" style="stroke: rgb(31, 119, 180);"/><text transform="translate(1040,3.532324221640465)" x="3" dy="0.35em" style="font: 12px sans-serif;">coarse0</text></g><g class="algo"><path class="line" d="M0,744.7091577004402L86.66666666666667,733.7189782670945C173.33333333333334,722.7287988337488,346.6666666666667,700.7484399670572,520,585.3814335754256C693.3333333333334,470.01442718379394,866.6666666666666,261.2607732672222,953.3333333333334,156.88394630893632L1040,52.50711935065044" style="stroke: rgb(255, 127, 14);"/><text transform="translate(1040,52.50711935065044)" x="3" dy="0.35em" style="font: 12px sans-serif;">fine0</text></g><g class="algo"><path class="line" d="M0,743.3754643884984L86.66666666666667,732.4105182142666C173.33333333333334,721.4455720400347,346.6666666666667,699.5156796915711,520,586.0885319899237C693.3333333333334,472.66138428827617,866.6666666666666,267.73698123344485,953.3333333333334,165.2747797060292L1040,62.812578178613535" style="stroke: rgb(44, 160, 44);"/><text transform="translate(1040,62.812578178613535)" x="3" dy="0.35em" style="font: 12px sans-serif;">fine1</text></g><g class="algo"><path class="line" d="M0,742.906613314331L86.66666666666667,732.3387135045483C173.33333333333334,721.7708136947655,346.6666666666667,700.6350140752,520,576.8172451894782C693.3333333333334,452.99947630375635,866.6666666666666,226.49973815187818,953.3333333333334,113.24986907593909L1040,0" style="stroke: rgb(214, 39, 40);"/><text transform="translate(1040,0)" x="3" dy="0.35em" style="font: 12px sans-serif;">lockfree0</text></g><g class="algo"><path class="line" d="M0,744.858916365677L86.66666666666667,736.6239490917918C173.33333333333334,728.3889818179064,346.6666666666667,711.9190472701357,520,604.0997639574988C693.3333333333334,496.2804806448618,866.6666666666666,297.11184856735866,953.3333333333334,197.52753252860703L1040,97.94321648985544" style="stroke: rgb(148, 103, 189);"/><text transform="translate(1040,97.94321648985544)" x="3" dy="0.35em" style="font: 12px sans-serif;">standard</text></g></g></svg>