<?xml version="1.0" standalone="no"?><!DOCTYPE svg PUBLIC "-//W3C//DTD SVG 1.1//EN" "http://www.w3.org/Graphics/SVG/1.1/DTD/svg11.dtd"><svg width="1280" height="800" version="1.1" xmlns="http://www.w3.org/2000/svg" xmlns:xlink="http://www.w3.org/1999/xlink"><defs xmlns="http://www.w3.org/1999/xhtml"><style type="text/css"><![CDATA[
.axis--x path {  }
.line { fill: none; stroke: steelblue; stroke-width: 1.5px; }]]></style></defs><g transform="translate(160,20)"><g class="axis axis--x" transform="translate(0,750)" fill="none" font-size="10" font-family="sans-serif" text-anchor="middle"><path class="domain" stroke="#000" d="M0.5,6V0.5H1040.5V6"/><g class="tick" opacity="1" transform="translate(0,0)"><line stroke="#000" y2="6" x1="0.5" x2="0.5"/><text fill="#000" y="9" x="0.5" dy="0.71em">1</text></g><g class="tick" opacity="1" transform="translate(156.5355977452702,0)"><line stroke="#000" y2="6" x1="0.5" x2="0.5"/><text fill="#000" y="9" x="0.5" dy="0.71em">2</text></g><g class="tick" opacity="1" transform="translate(363.46440225472975,0)"><line stroke="#000" y2="6" x1="0.5" x2="0.5"/><text fill="#000" y="9" x="0.5" dy="0.71em">5</text></g><g class="tick" opacity="1" transform="translate(520,0)"><line stroke="#000" y2="6" x1="0.5" x2="0.5"/><text fill="#000" y="9" x="0.5" dy="0.71em">10</text></g><g class="tick" opacity="1" transform="translate(676.5355977452701,0)"><line stroke="#000" y2="6" x1="0.5" x2="0.5"/><text fill="#000" y="9" x="0.5" dy="0.71em">20</text></g><g class="tick" opacity="1" transform="translate(768.1030524542244,0)"><line stroke="#000" y2="6" x1="0.5" x2="0.5"/><text fill="#000" y="9" x="0.5" dy="0.71em">30</text></g><g class="tick" opacity="1" transform="translate(833.0711954905404,0)"><line stroke="#000" y2="6" x1="0.5" x2="0.5"/><text fill="#000" y="9" x="0.5" dy="0.71em">40</text></g><g class="tick" opacity="1" transform="translate(883.4644022547296,0)"><line stroke="#000" y2="6" x1="0.5" x2="0.5"/><text fill="#000" y="9" x="0.5" dy="0.71em">50</text></g><g class="tick" opacity="1" transform="translate(924.6386501994946,0)"><line stroke="#000" y2="6" x1="0.5" x2="0.5"/><text fill="#000" y="9" x="0.5" dy="0.71em">60</text></g><g class="tick" opacity="1" transform="translate(959.4509808074135,0)"><line stroke="#000" y2="6" x1="0.5" x2="0.5"/><text fill="#000" y="9" x="0.5" dy="0.71em">70</text></g><g class="tick" opacity="1" transform="translate(989.6067932358105,0)"><line stroke="#000" y2="6" x1="0.5" x2="0.5"/><text fill="#000" y="9" x="0.5" dy="0.71em">80</text></g><g class="tick" opacity="1" transform="translate(1016.2061049084489,0)"><line stroke="#000" y2="6" x1="0.5" x2="0.5"/><text fill="#000" y="9" x="0.5" dy="0.71em">90</text></g><g class="tick" opacity="1" transform="translate(1040,0)"><line stroke="#000" y2="6" x1="0.5" x2="0.5"/><text fill="#000" y="9" x="0.5" dy="0.71em">100</text></g><text x="25" dy="2em" fill="#000" style="font: 12px sans-serif;">Threads</text></g><g class="axis axis--y" style="font: 12px sans-serif;" fill="none" font-size="10" font-family="sans-serif" text-anchor="end"><path class="domain" stroke="#000" d="M-6,750.5H0.5V0.5H-6"/><g class="tick" opacity="1" transform="translate(0,750)"><line stroke="#000" x2="-6" y1="0.5" y2="0.5"/><text fill="#000" x="-9" y="0.5" dy="0.32em">0</text></g><g class="tick" opacity="1" transform="translate(0,666.2124244283548)"><line stroke="#000" x2="-6" y1="0.5" y2="0.5"/><text fill="#000" x="-9" y="0.5" dy="0.32em">10</text></g><g class="tick" opacity="1" transform="translate(0,582.4248488567096)"><line stroke="#000" x2="-6" y1="0.5" y2="0.5"/><text fill="#000" x="-9" y="0.5" dy="0.32em">20</text></g><g class="tick" opacity="1" transform="translate(0,498.63727328506434)"><line stroke="#000" x2="-6" y1="0.5" y2="0.5"/><text fill="#000" x="-9" y="0.5" dy="0.32em">30</text></g><g class="tick" opacity="1" transform="translate(0,414.84969771341923)"><line stroke="#000" x2="-6" y1="0.5" y2="0.5"/><text fill="#000" x="-9" y="0.5" dy="0.32em">40</text></g><g class="tick" opacity="1" transform="translate(0,331.06212214177395)"><line stroke="#000" x2="-6" y1="0.5" y2="0.5"/><text fill="#000" x="-9" y="0.5" dy="0.32em">50</text></g><g class="tick" opacity="1" transform="translate(0,247.27454657012873)"><line stroke="#000" x2="-6" y1="0.5" y2="0.5"/><text fill="#000" x="-9" y="0.5" dy="0.32em">60</text></g><g class="tick" opacity="1" transform="translate(0,163.48697099848357)"><line stroke="#000" x2="-6" y1="0.5" y2="0.5"/><text fill="#000" x="-9" y="0.5" dy="0.32em">70</text></g><g class="tick" opacity="1" transform="translate(0,79.69939542683846)"><line stroke="#000" x2="-6" y1="0.5" y2="0.5"/><text fill="#000" x="-9" y="0.5" dy="0.32em">80</text></g><text transform="rotate(-90)" y="6" dy="0.71em" fill="#000" style="font: 12px sans-serif;">Time, ms</text></g><g class="algo"><path class="line" d="M0,738.8667141656571L86.66666666666667,730.0202314597142C173.33333333333334,721.1737487537715,346.6666666666667,703.480783341886,520,599.8401109624559C693.3333333333334,496.1994385830257,866.6666666666666,306.61105923605083,953.3333333333334,211.81686956256343L1040,117.02267988907602" style="stroke: rgb(31, 119, 180);"/><text transform="translate(1040,117.02267988907602)" x="3" dy="0.35em" style="font: 12px sans-serif;">coarse0</text></g><g class="algo"><path class="line" d="M0,736.3393289785988L86.66666666666667,727.6448503407552C173.33333333333334,718.9503717029114,346.6666666666667,701.561414427224,520,585.0805306966507C693.3333333333334,468.5996469660776,866.6666666666666,253.0268367806186,953.3333333333334,145.24043168788907L1040,37.454026595159576" style="stroke: rgb(255, 127, 14);"/><text transform="translate(1040,37.454026595159576)" x="3" dy="0.35em" style="font: 12px sans-serif;">fine0</text></g><g class="algo"><path class="line" d="M0,744.8906018023623L86.66666666666667,730.5207870942287C173.33333333333334,716.1509723860951,346.6666666666667,687.4113429698281,520,563.262909336101C693.3333333333334,439.11447570237397,866.6666666666666,219.55723785118698,953.3333333333334,109.77861892559349L1040,0" style="stroke: rgb(44, 160, 44);"/><text transform="translate(1040,0)" x="3" dy="0.35em" style="font: 12px sans-serif;">fine1</text></g><g class="algo"><path class="line" d="M0,739.2784915573069L86.66666666666667,727.4776067091192C173.33333333333334,715.6767218609315,346.6666666666667,692.0749521645558,520,577.2289866290447C693.3333333333334,462.3830210935333,866.6666666666666,256.29285971888623,953.3333333333334,153.2477790315627L1040,50.20269834423914" style="stroke: rgb(214, 39, 40);"/><text transform="translate(1040,50.20269834423914)" x="3" dy="0.35em" style="font: 12px sans-serif;">lockfree0</text></g><g class="algo"><path class="line" d="M0,742.3897119224514L86.66666666666667,733.9842353453128C173.33333333333334,725.5787587681743,346.6666666666667,708.7678056138972,520,605.8807276264997C693.3333333333334,502.99364963910233,866.6666666666666,314.0304468185846,953.3333333333334,219.54884540832577L1040,125.06724399806694" style="stroke: rgb(148, 103, 189);"/><text transform="translate(1040,125.06724399806694)" x="3" dy="0.35em" style="font: 12px sans-serif;">standard</text></g></g></svg>