<?xml version="1.0" standalone="no"?><!DOCTYPE svg PUBLIC "-//W3C//DTD SVG 1.1//EN" "http://www.w3.org/Graphics/SVG/1.1/DTD/svg11.dtd"><svg width="1280" height="800" version="1.1" xmlns="http://www.w3.org/2000/svg" xmlns:xlink="http://www.w3.org/1999/xlink"><defs xmlns="http://www.w3.org/1999/xhtml"><style type="text/css"><![CDATA[
.axis--x path {  }
.line { fill: none; stroke: steelblue; stroke-width: 1.5px; }]]></style></defs><g transform="translate(160,20)"><g class="axis axis--x" transform="translate(0,750)" fill="none" font-size="10" font-family="sans-serif" text-anchor="middle"><path class="domain" stroke="#000" d="M0.5,6V0.5H1040.5V6"/><g class="tick" opacity="1" transform="translate(0,0)"><line stroke="#000" y2="6" x1="0.5" x2="0.5"/><text fill="#000" y="9" x="0.5" dy="0.71em">1</text></g><g class="tick" opacity="1" transform="translate(156.5355977452702,0)"><line stroke="#000" y2="6" x1="0.5" x2="0.5"/><text fill="#000" y="9" x="0.5" dy="0.71em">2</text></g><g class="tick" opacity="1" transform="translate(363.46440225472975,0)"><line stroke="#000" y2="6" x1="0.5" x2="0.5"/><text fill="#000" y="9" x="0.5" dy="0.71em">5</text></g><g class="tick" opacity="1" transform="translate(520,0)"><line stroke="#000" y2="6" x1="0.5" x2="0.5"/><text fill="#000" y="9" x="0.5" dy="0.71em">10</text></g><g class="tick" opacity="1" transform="translate(676.5355977452701,0)"><line stroke="#000" y2="6" x1="0.5" x2="0.5"/><text fill="#000" y="9" x="0.5" dy="0.71em">20</text></g><g class="tick" opacity="1" transform="translate(768.1030524542244,0)"><line stroke="#000" y2="6" x1="0.5" x2="0.5"/><text fill="#000" y="9" x="0.5" dy="0.71em">30</text></g><g class="tick" opacity="1" transform="translate(833.0711954905404,0)"><line stroke="#000" y2="6" x1="0.5" x2="0.5"/><text fill="#000" y="9" x="0.5" dy="0.71em">40</text></g><g class="tick" opacity="1" transform="translate(883.4644022547296,0)"><line stroke="#000" y2="6" x1="0.5" x2="0.5"/><text fill="#000" y="9" x="0.5" dy="0.71em">50</text></g><g class="tick" opacity="1" transform="translate(924.6386501994946,0)"><line stroke="#000" y2="6" x1="0.5" x2="0.5"/><text fill="#000" y="9" x="0.5" dy="0.71em">60</text></g><g class="tick" opacity="1" transform="translate(959.4509808074135,0)"><line stroke="#000" y2="6" x1="0.5" x2="0.5"/><text fill="#000" y="9" x="0.5" dy="0.71em">70</text></g><g class="tick" opacity="1" transform="translate(989.6067932358105,0)"><line stroke="#000" y2="6" x1="0.5" x2="0.5"/><text fill="#000" y="9" x="0.5" dy="0.71em">80</text></g><g class="tick" opacity="1" transform="translate(1016.2061049084489,0)"><line stroke="#000" y2="6" x1="0.5" x2="0.5"/><text fill="#000" y="9" x="0.5" dy="0.71em">90</text></g><g class="tick" opacity="1" transform="translate(1040,0)"><line stroke="#000" y2="6" x1="0.5" x2="0.5"/><text fill="#000" y="9" x="0.5" dy="0.71em">100</text></g><text x="25" dy="2em" fill="#000" style="font: 12px sans-serif;">Threads</text></g><g class="axis axis--y" style="font: 12px sans-serif;" fill="none" font-size="10" font-family="sans-serif" text-anchor="end"><path class="domain" stroke="#000" d="M-6,750.5H0.5V0.5H-6"/><g class="tick" opacity="1" transform="translate(0,750)"><line stroke="#000" x2="-6" y1="0.5" y2="0.5"/><text fill="#000" x="-9" y="0.5" dy="0.32em">0</text></g><g class="tick" opacity="1" transform="translate(0,693.9202762559811)"><line stroke="#000" x2="-6" y1="0.5" y2="0.5"/><text fill="#000" x="-9" y="0.5" dy="0.32em">50</text></g><g class="tick" opacity="1" transform="translate(0,637.8405525119622)"><line stroke="#000" x2="-6" y1="0.5" y2="0.5"/><text fill="#000" x="-9" y="0.5" dy="0.32em">100</text></g><g class="tick" opacity="1" transform="translate(0,581.7608287679434)"><line stroke="#000" x2="-6" y1="0.5" y2="0.5"/><text fill="#000" x="-9" y="0.5" dy="0.32em">150</text></g><g class="tick" opacity="1" transform="translate(0,525.6811050239245)"><line stroke="#000" x2="-6" y1="0.5" y2="0.5"/><text fill="#000" x="-9" y="0.5" dy="0.32em">200</text></g><g class="tick" opacity="1" transform="translate(0,469.6013812799056)"><line stroke="#000" x2="-6" y1="0.5" y2="0.5"/><text fill="#000" x="-9" y="0.5" dy="0.32em">250</text></g><g class="tick" opacity="1" transform="translate(0,413.5216575358867)"><line stroke="#000" x2="-6" y1="0.5" y2="0.5"/><text fill="#000" x="-9" y="0.5" dy="0.32em">300</text></g><g class="tick" opacity="1" transform="translate(0,357.4419337918678)"><line stroke="#000" x2="-6" y1="0.5" y2="0.5"/><text fill="#000" x="-9" y="0.5" dy="0.32em">350</text></g><g class="tick" opacity="1" transform="translate(0,301.3622100478489)"><line stroke="#000" x2="-6" y1="0.5" y2="0.5"/><text fill="#000" x="-9" y="0.5" dy="0.32em">400</text></g><g class="tick" opacity="1" transform="translate(0,245.28248630383007)"><line stroke="#000" x2="-6" y1="0.5" y2="0.5"/><text fill="#000" x="-9" y="0.5" dy="0.32em">450</text></g><g class="tick" opacity="1" transform="translate(0,189.20276255981116)"><line stroke="#000" x2="-6" y1="0.5" y2="0.5"/><text fill="#000" x="-9" y="0.5" dy="0.32em">500</text></g><g class="tick" opacity="1" transform="translate(0,133.12303881579226)"><line stroke="#000" x2="-6" y1="0.5" y2="0.5"/><text fill="#000" x="-9" y="0.5" dy="0.32em">550</text></g><g class="tick" opacity="1" transform="translate(0,77.04331507177335)"><line stroke="#000" x2="-6" y1="0.5" y2="0.5"/><text fill="#000" x="-9" y="0.5" dy="0.32em">600</text></g><g class="tick" opacity="1" transform="translate(0,20.963591327754557)"><line stroke="#000" x2="-6" y1="0.5" y2="0.5"/><text fill="#000" x="-9" y="0.5" dy="0.32em">650</text></g><text transform="rotate(-90)" y="6" dy="0.71em" fill="#000" style="font: 12px sans-serif;">Time, ms</text></g><g class="algo"><path class="line" d="M0,728.7544627017879L86.66666666666667,718.4539070219524C173.33333333333334,708.1533513421168,346.6666666666667,687.5522399824458,520,569.9251932391232C693.3333333333334,452.29814649580084,866.6666666666666,237.64516436882684,953.3333333333334,130.31867330533987L1040,22.992182241852902" style="stroke: rgb(31, 119, 180);"/><text transform="translate(1040,22.992182241852902)" x="3" dy="0.35em" style="font: 12px sans-serif;">coarse0</text></g><g class="algo"><path class="line" d="M0,739.0026531170748L86.66666666666667,728.302050223017C173.33333333333334,717.6014473289591,346.6666666666667,696.2002415408434,520,597.8345876900987C693.3333333333334,499.46893383935395,866.6666666666666,324.1388319259802,953.3333333333334,236.47378096929324L1040,148.80873001260636" style="stroke: rgb(255, 127, 14);"/><text transform="translate(1040,148.80873001260636)" x="3" dy="0.35em" style="font: 12px sans-serif;">fine0</text></g><g class="algo"><path class="line" d="M0,742.4792642215583L86.66666666666667,732.4469982395598C173.33333333333334,722.4147322575609,346.6666666666667,702.3502002935637,520,578.6036562566372C693.3333333333334,454.85711221971087,866.6666666666666,227.42855610985544,953.3333333333334,113.71427805492772L1040,0" style="stroke: rgb(44, 160, 44);"/><text transform="translate(1040,0)" x="3" dy="0.35em" style="font: 12px sans-serif;">fine1</text></g><g class="algo"><path class="line" d="M0,738.4539540705974L86.66666666666667,727.0293877396772C173.33333333333334,715.6048214087572,346.6666666666667,692.7556887469167,520,590.8562686457753C693.3333333333334,488.9568485446341,866.6666666666666,308.0071410041919,953.3333333333334,217.5322872339708L1040,127.0574334637497" style="stroke: rgb(214, 39, 40);"/><text transform="translate(1040,127.0574334637497)" x="3" dy="0.35em" style="font: 12px sans-serif;">lockfree0</text></g><g class="algo"><path class="line" d="M0,740.3161690062054L86.66666666666667,730.924092924735C173.33333333333334,721.5320168432648,346.6666666666667,702.7478646803241,520,611.1214314668258C693.3333333333334,519.4949982533275,866.6666666666666,355.02628398927163,953.3333333333334,272.79192685724365L1040,190.55756972521567" style="stroke: rgb(148, 103, 189);"/><text transform="translate(1040,190.55756972521567)" x="3" dy="0.35em" style="font: 12px sans-serif;">standard</text></g></g></svg>